<?xml version="1.0" encoding="UTF-8"?>
<svg width="22px" height="22px" viewBox="0 0 22 22" version="1.1" xmlns="http://www.w3.org/2000/svg" xmlns:xlink="http://www.w3.org/1999/xlink">
    <!-- Generator: Sketch 61 (89581) - https://sketch.com -->
    <title>1_dashboard_white</title>
    <desc>Created with Sketch.</desc>
    <g id="Symbols" stroke="none" stroke-width="1" fill="none" fill-rule="evenodd">
        <g id="side-bar_smal" transform="translate(-24.000000, -84.000000)" fill-rule="nonzero">
            <g id="1">
                <g transform="translate(0.000000, 72.000000)">
                    <g id="1_dashboard_white" transform="translate(24.000000, 12.000000)">
                        <rect id="Rectangle-path" fill-opacity="0.01" fill="#000000" opacity="0.00985863095" style="mix-blend-mode: overlay;" x="0" y="0" width="22" height="22"></rect>
                        <path d="M6.70527344,12.7080078 C6.771875,12.7746094 6.88144531,12.7746094 6.94804688,12.7080078 L9.13515625,10.5208984 L10.9849609,12.3728516 C11.0515625,12.4394531 11.1611328,12.4394531 11.2277344,12.3728516 L16.0896484,7.50664063 C16.15625,7.44003906 16.15625,7.33046875 16.0896484,7.26386719 L15.2990234,6.47324219 C15.2324219,6.40664063 15.1228516,6.40664063 15.05625,6.47324219 L11.1074219,10.4263672 L9.25761719,8.57441406 C9.19101562,8.5078125 9.08144531,8.5078125 9.01484375,8.57441406 L5.91464844,11.6746094 C5.84804688,11.7412109 5.84804688,11.8507813 5.91464844,11.9173828 L6.70527344,12.7080078 L6.70527344,12.7080078 Z M19.421875,3.4375 L11.7734375,3.4375 L11.7734375,2.0625 C11.7734375,1.96796875 11.6960938,1.890625 11.6015625,1.890625 L10.3984375,1.890625 C10.3039063,1.890625 10.2265625,1.96796875 10.2265625,2.0625 L10.2265625,3.4375 L2.578125,3.4375 C2.19785156,3.4375 1.890625,3.74472656 1.890625,4.125 L1.890625,15.296875 C1.890625,15.6771484 2.19785156,15.984375 2.578125,15.984375 L10.2351562,15.984375 L10.2351562,16.671875 L6.69453125,18.9943359 C6.61503906,19.0458984 6.59355469,19.1511719 6.64511719,19.2306641 L7.29609375,20.2447266 L7.29609375,20.246875 C7.34765625,20.3263672 7.45507812,20.3478516 7.53457031,20.2962891 L11,18.0232422 L14.4654297,20.2962891 C14.5449219,20.3478516 14.6523438,20.3263672 14.7039062,20.246875 L14.7039062,20.2447266 L15.3548828,19.2306641 C15.4064453,19.1511719 15.3828125,19.0458984 15.3054687,18.9943359 L11.7734375,16.6783203 L11.7734375,15.984375 L19.421875,15.984375 C19.8021484,15.984375 20.109375,15.6771484 20.109375,15.296875 L20.109375,4.125 C20.109375,3.74472656 19.8021484,3.4375 19.421875,3.4375 Z M18.5625,14.4375 L3.4375,14.4375 L3.4375,4.984375 L18.5625,4.984375 L18.5625,14.4375 Z" id="Shape" fill="#FFFFFF"></path>
                    </g>
                </g>
            </g>
        </g>
    </g>
</svg>