<svg xmlns="http://www.w3.org/2000/svg" width="14" height="14" viewBox="0 0 14 14">
    <g fill="none" fill-rule="evenodd">
        <path fill="#FFF" fill-opacity="0" d="M0 0H16V16H0z" transform="translate(-1 -1)"/>
        <path fill="#000" fill-rule="nonzero" d="M14.438 13.86H1.562c-.31 0-.562.252-.562.562 0 .31.252.562.563.562h12.874c.311 0 .563-.251.563-.562 0-.31-.252-.562-.563-.562zM4.624 12.02l3.68-1.557c.06-.024.112-.06.16-.106l6.205-6.199c.44-.439.443-1.153.003-1.592l-1.239-1.238c-.439-.438-1.154-.435-1.593.003l-6.207 6.2c-.045.045-.08.1-.106.159l-1.56 3.674c-.087.206-.026.414.107.548.133.134.342.195.55.108zm8.01-9.894l.004-.003 1.238 1.236-.004.003-.968.968-1.238-1.236.969-.968zm-6.12 6.113l4.357-4.351 1.237 1.236-4.356 4.352-2.147.908.91-2.145z" transform="translate(-1 -1)"/>
    </g>
</svg>

